<mxfile host="app.diagrams.net" modified="2021-05-20T02:20:10.673Z" agent="5.0 (Windows NT 10.0; Win64; x64) AppleWebKit/537.36 (KHTML, like Gecko) Chrome/90.0.4430.212 Safari/537.36" etag="3evP9gNx3e-dG41Tsebf" version="14.6.13" type="github" pages="4">
  <diagram id="C5RBs43oDa-KdzZeNtuy" name="A1_Temperature">
    <mxGraphModel dx="1422" dy="800" grid="0" gridSize="10" guides="1" tooltips="1" connect="1" arrows="1" fold="1" page="1" pageScale="1" pageWidth="827" pageHeight="1169" math="0" shadow="0">
      <root>
        <mxCell id="WIyWlLk6GJQsqaUBKTNV-0" />
        <mxCell id="WIyWlLk6GJQsqaUBKTNV-1" parent="WIyWlLk6GJQsqaUBKTNV-0" />
        <mxCell id="vXGylhnkHRLZCkYe7r-B-0" value="Temperature" style="swimlane;fontStyle=1;align=center;verticalAlign=top;childLayout=stackLayout;horizontal=1;startSize=26;horizontalStack=0;resizeParent=1;resizeParentMax=0;resizeLast=0;collapsible=1;marginBottom=0;" parent="WIyWlLk6GJQsqaUBKTNV-1" vertex="1">
          <mxGeometry x="262" y="155" width="160" height="138" as="geometry">
            <mxRectangle x="262" y="155" width="90" height="26" as="alternateBounds" />
          </mxGeometry>
        </mxCell>
        <mxCell id="vXGylhnkHRLZCkYe7r-B-1" value="- degrees: double" style="text;strokeColor=none;fillColor=none;align=left;verticalAlign=top;spacingLeft=4;spacingRight=4;overflow=hidden;rotatable=0;points=[[0,0.5],[1,0.5]];portConstraint=eastwest;" parent="vXGylhnkHRLZCkYe7r-B-0" vertex="1">
          <mxGeometry y="26" width="160" height="26" as="geometry" />
        </mxCell>
        <mxCell id="vXGylhnkHRLZCkYe7r-B-2" value="" style="line;strokeWidth=1;fillColor=none;align=left;verticalAlign=middle;spacingTop=-1;spacingLeft=3;spacingRight=3;rotatable=0;labelPosition=right;points=[];portConstraint=eastwest;" parent="vXGylhnkHRLZCkYe7r-B-0" vertex="1">
          <mxGeometry y="52" width="160" height="8" as="geometry" />
        </mxCell>
        <mxCell id="jLxq7RsYBqFFmW-ewrxk-0" value="+ Temperature(deg:double)&#xa;" style="text;strokeColor=none;fillColor=none;align=left;verticalAlign=top;spacingLeft=4;spacingRight=4;overflow=hidden;rotatable=0;points=[[0,0.5],[1,0.5]];portConstraint=eastwest;" parent="vXGylhnkHRLZCkYe7r-B-0" vertex="1">
          <mxGeometry y="60" width="160" height="26" as="geometry" />
        </mxCell>
        <mxCell id="vXGylhnkHRLZCkYe7r-B-3" value="+ getCelcius(): double" style="text;strokeColor=none;fillColor=none;align=left;verticalAlign=top;spacingLeft=4;spacingRight=4;overflow=hidden;rotatable=0;points=[[0,0.5],[1,0.5]];portConstraint=eastwest;" parent="vXGylhnkHRLZCkYe7r-B-0" vertex="1">
          <mxGeometry y="86" width="160" height="26" as="geometry" />
        </mxCell>
        <mxCell id="vXGylhnkHRLZCkYe7r-B-5" value="+ getFahrenheit(): double" style="text;strokeColor=none;fillColor=none;align=left;verticalAlign=top;spacingLeft=4;spacingRight=4;overflow=hidden;rotatable=0;points=[[0,0.5],[1,0.5]];portConstraint=eastwest;" parent="vXGylhnkHRLZCkYe7r-B-0" vertex="1">
          <mxGeometry y="112" width="160" height="26" as="geometry" />
        </mxCell>
      </root>
    </mxGraphModel>
  </diagram>
  <diagram id="K3lC_Kt64ys4duzaJQxi" name="A1_Tiles">
    <mxGraphModel dx="1422" dy="800" grid="0" gridSize="10" guides="1" tooltips="1" connect="1" arrows="1" fold="1" page="1" pageScale="1" pageWidth="1100" pageHeight="850" math="0" shadow="0">
      <root>
        <mxCell id="Yqb4R4hpPCuoO_Bcr46e-0" />
        <mxCell id="Yqb4R4hpPCuoO_Bcr46e-1" parent="Yqb4R4hpPCuoO_Bcr46e-0" />
        <mxCell id="CTnIjqv5DMD0bMQ1YZT0-0" value="Tile" style="swimlane;fontStyle=1;align=center;verticalAlign=top;childLayout=stackLayout;horizontal=1;startSize=26;horizontalStack=0;resizeParent=1;resizeParentMax=0;resizeLast=0;collapsible=1;marginBottom=0;" parent="Yqb4R4hpPCuoO_Bcr46e-1" vertex="1">
          <mxGeometry x="470" y="297" width="217" height="190" as="geometry" />
        </mxCell>
        <mxCell id="CTnIjqv5DMD0bMQ1YZT0-1" value="- value: int" style="text;strokeColor=none;fillColor=none;align=left;verticalAlign=top;spacingLeft=4;spacingRight=4;overflow=hidden;rotatable=0;points=[[0,0.5],[1,0.5]];portConstraint=eastwest;" parent="CTnIjqv5DMD0bMQ1YZT0-0" vertex="1">
          <mxGeometry y="26" width="217" height="26" as="geometry" />
        </mxCell>
        <mxCell id="CTnIjqv5DMD0bMQ1YZT0-4" value="- letter: char" style="text;strokeColor=none;fillColor=none;align=left;verticalAlign=top;spacingLeft=4;spacingRight=4;overflow=hidden;rotatable=0;points=[[0,0.5],[1,0.5]];portConstraint=eastwest;" parent="CTnIjqv5DMD0bMQ1YZT0-0" vertex="1">
          <mxGeometry y="52" width="217" height="26" as="geometry" />
        </mxCell>
        <mxCell id="CTnIjqv5DMD0bMQ1YZT0-2" value="" style="line;strokeWidth=1;fillColor=none;align=left;verticalAlign=middle;spacingTop=-1;spacingLeft=3;spacingRight=3;rotatable=0;labelPosition=right;points=[];portConstraint=eastwest;" parent="CTnIjqv5DMD0bMQ1YZT0-0" vertex="1">
          <mxGeometry y="78" width="217" height="8" as="geometry" />
        </mxCell>
        <mxCell id="GTa4_cvajuoA4EW4MXzM-0" value="+ Tile():" style="text;strokeColor=none;fillColor=none;align=left;verticalAlign=top;spacingLeft=4;spacingRight=4;overflow=hidden;rotatable=0;points=[[0,0.5],[1,0.5]];portConstraint=eastwest;" parent="CTnIjqv5DMD0bMQ1YZT0-0" vertex="1">
          <mxGeometry y="86" width="217" height="26" as="geometry" />
        </mxCell>
        <mxCell id="CTnIjqv5DMD0bMQ1YZT0-3" value="+ Tile(value: int, letter:char):" style="text;strokeColor=none;fillColor=none;align=left;verticalAlign=top;spacingLeft=4;spacingRight=4;overflow=hidden;rotatable=0;points=[[0,0.5],[1,0.5]];portConstraint=eastwest;" parent="CTnIjqv5DMD0bMQ1YZT0-0" vertex="1">
          <mxGeometry y="112" width="217" height="26" as="geometry" />
        </mxCell>
        <mxCell id="mVxW-bOKaWD4B1XCzUF8-0" value="+ toString(): String" style="text;strokeColor=none;fillColor=none;align=left;verticalAlign=top;spacingLeft=4;spacingRight=4;overflow=hidden;rotatable=0;points=[[0,0.5],[1,0.5]];portConstraint=eastwest;" parent="CTnIjqv5DMD0bMQ1YZT0-0" vertex="1">
          <mxGeometry y="138" width="217" height="26" as="geometry" />
        </mxCell>
        <mxCell id="mVxW-bOKaWD4B1XCzUF8-1" value="+ equals(obj: Object): boolean" style="text;strokeColor=none;fillColor=none;align=left;verticalAlign=top;spacingLeft=4;spacingRight=4;overflow=hidden;rotatable=0;points=[[0,0.5],[1,0.5]];portConstraint=eastwest;" parent="CTnIjqv5DMD0bMQ1YZT0-0" vertex="1">
          <mxGeometry y="164" width="217" height="26" as="geometry" />
        </mxCell>
      </root>
    </mxGraphModel>
  </diagram>
  <diagram id="lRm_Rd1LkNhkEXuzlwiS" name="A2_MonthJFrame">
    <mxGraphModel dx="981" dy="552" grid="0" gridSize="10" guides="1" tooltips="1" connect="1" arrows="1" fold="1" page="1" pageScale="1" pageWidth="1100" pageHeight="850" math="0" shadow="0">
      <root>
        <mxCell id="ClF1qyPl0i5m5IHIRU5K-0" />
        <mxCell id="ClF1qyPl0i5m5IHIRU5K-1" parent="ClF1qyPl0i5m5IHIRU5K-0" />
        <mxCell id="w14drhGpgXl8XKmJdWLk-0" value="JFrame" style="html=1;" vertex="1" parent="ClF1qyPl0i5m5IHIRU5K-1">
          <mxGeometry x="291" y="119" width="110" height="50" as="geometry" />
        </mxCell>
        <mxCell id="w14drhGpgXl8XKmJdWLk-1" value="Action Listener" style="html=1;" vertex="1" parent="ClF1qyPl0i5m5IHIRU5K-1">
          <mxGeometry x="530" y="119" width="110" height="50" as="geometry" />
        </mxCell>
        <mxCell id="w14drhGpgXl8XKmJdWLk-11" style="edgeStyle=orthogonalEdgeStyle;rounded=0;orthogonalLoop=1;jettySize=auto;html=1;exitX=0.25;exitY=0;exitDx=0;exitDy=0;endArrow=block;endFill=0;" edge="1" parent="ClF1qyPl0i5m5IHIRU5K-1" source="w14drhGpgXl8XKmJdWLk-2">
          <mxGeometry relative="1" as="geometry">
            <mxPoint x="344" y="167" as="targetPoint" />
            <Array as="points">
              <mxPoint x="399" y="202" />
              <mxPoint x="344" y="202" />
            </Array>
          </mxGeometry>
        </mxCell>
        <mxCell id="w14drhGpgXl8XKmJdWLk-12" style="edgeStyle=orthogonalEdgeStyle;rounded=0;orthogonalLoop=1;jettySize=auto;html=1;exitX=0.75;exitY=0;exitDx=0;exitDy=0;entryX=0.5;entryY=1;entryDx=0;entryDy=0;endArrow=block;endFill=0;dashed=1;" edge="1" parent="ClF1qyPl0i5m5IHIRU5K-1" source="w14drhGpgXl8XKmJdWLk-2" target="w14drhGpgXl8XKmJdWLk-1">
          <mxGeometry relative="1" as="geometry" />
        </mxCell>
        <mxCell id="w14drhGpgXl8XKmJdWLk-2" value="MonthJFrame" style="swimlane;fontStyle=1;align=center;verticalAlign=top;childLayout=stackLayout;horizontal=1;startSize=26;horizontalStack=0;resizeParent=1;resizeParentMax=0;resizeLast=0;collapsible=1;marginBottom=0;" vertex="1" parent="ClF1qyPl0i5m5IHIRU5K-1">
          <mxGeometry x="359" y="228" width="227" height="164" as="geometry" />
        </mxCell>
        <mxCell id="w14drhGpgXl8XKmJdWLk-3" value="- inputField: JTextField" style="text;strokeColor=none;fillColor=none;align=left;verticalAlign=top;spacingLeft=4;spacingRight=4;overflow=hidden;rotatable=0;points=[[0,0.5],[1,0.5]];portConstraint=eastwest;" vertex="1" parent="w14drhGpgXl8XKmJdWLk-2">
          <mxGeometry y="26" width="227" height="26" as="geometry" />
        </mxCell>
        <mxCell id="w14drhGpgXl8XKmJdWLk-6" value="- display: JTextArea" style="text;strokeColor=none;fillColor=none;align=left;verticalAlign=top;spacingLeft=4;spacingRight=4;overflow=hidden;rotatable=0;points=[[0,0.5],[1,0.5]];portConstraint=eastwest;" vertex="1" parent="w14drhGpgXl8XKmJdWLk-2">
          <mxGeometry y="52" width="227" height="26" as="geometry" />
        </mxCell>
        <mxCell id="w14drhGpgXl8XKmJdWLk-4" value="" style="line;strokeWidth=1;fillColor=none;align=left;verticalAlign=middle;spacingTop=-1;spacingLeft=3;spacingRight=3;rotatable=0;labelPosition=right;points=[];portConstraint=eastwest;" vertex="1" parent="w14drhGpgXl8XKmJdWLk-2">
          <mxGeometry y="78" width="227" height="8" as="geometry" />
        </mxCell>
        <mxCell id="w14drhGpgXl8XKmJdWLk-5" value="+ MonthJframe(title: String)" style="text;strokeColor=none;fillColor=none;align=left;verticalAlign=top;spacingLeft=4;spacingRight=4;overflow=hidden;rotatable=0;points=[[0,0.5],[1,0.5]];portConstraint=eastwest;" vertex="1" parent="w14drhGpgXl8XKmJdWLk-2">
          <mxGeometry y="86" width="227" height="26" as="geometry" />
        </mxCell>
        <mxCell id="w14drhGpgXl8XKmJdWLk-7" value="+ actionPerformed(event): void" style="text;strokeColor=none;fillColor=none;align=left;verticalAlign=top;spacingLeft=4;spacingRight=4;overflow=hidden;rotatable=0;points=[[0,0.5],[1,0.5]];portConstraint=eastwest;" vertex="1" parent="w14drhGpgXl8XKmJdWLk-2">
          <mxGeometry y="112" width="227" height="26" as="geometry" />
        </mxCell>
        <mxCell id="w14drhGpgXl8XKmJdWLk-8" value="+ main(args: String[]): void" style="text;strokeColor=none;fillColor=none;align=left;verticalAlign=top;spacingLeft=4;spacingRight=4;overflow=hidden;rotatable=0;points=[[0,0.5],[1,0.5]];portConstraint=eastwest;" vertex="1" parent="w14drhGpgXl8XKmJdWLk-2">
          <mxGeometry y="138" width="227" height="26" as="geometry" />
        </mxCell>
        <mxCell id="Kk2b6b-OAnLXcjFMLqS6-0" value="Days" style="swimlane;fontStyle=1;align=center;verticalAlign=top;childLayout=stackLayout;horizontal=1;startSize=26;horizontalStack=0;resizeParent=1;resizeParentMax=0;resizeLast=0;collapsible=1;marginBottom=0;" vertex="1" parent="ClF1qyPl0i5m5IHIRU5K-1">
          <mxGeometry x="527" y="430" width="160" height="60" as="geometry" />
        </mxCell>
        <mxCell id="Kk2b6b-OAnLXcjFMLqS6-2" value="" style="line;strokeWidth=1;fillColor=none;align=left;verticalAlign=middle;spacingTop=-1;spacingLeft=3;spacingRight=3;rotatable=0;labelPosition=right;points=[];portConstraint=eastwest;" vertex="1" parent="Kk2b6b-OAnLXcjFMLqS6-0">
          <mxGeometry y="26" width="160" height="8" as="geometry" />
        </mxCell>
        <mxCell id="Kk2b6b-OAnLXcjFMLqS6-3" value="+ howManyDays(int a): int" style="text;strokeColor=none;fillColor=none;align=left;verticalAlign=top;spacingLeft=4;spacingRight=4;overflow=hidden;rotatable=0;points=[[0,0.5],[1,0.5]];portConstraint=eastwest;fontStyle=4" vertex="1" parent="Kk2b6b-OAnLXcjFMLqS6-0">
          <mxGeometry y="34" width="160" height="26" as="geometry" />
        </mxCell>
        <mxCell id="Kk2b6b-OAnLXcjFMLqS6-4" style="edgeStyle=orthogonalEdgeStyle;rounded=0;orthogonalLoop=1;jettySize=auto;html=1;exitX=1;exitY=0.5;exitDx=0;exitDy=0;entryX=0.556;entryY=0.017;entryDx=0;entryDy=0;entryPerimeter=0;dashed=1;endArrow=block;endFill=0;labelBorderColor=none;" edge="1" parent="ClF1qyPl0i5m5IHIRU5K-1" source="w14drhGpgXl8XKmJdWLk-8" target="Kk2b6b-OAnLXcjFMLqS6-0">
          <mxGeometry relative="1" as="geometry" />
        </mxCell>
        <mxCell id="Kk2b6b-OAnLXcjFMLqS6-5" value="&lt;i&gt;&amp;lt;&amp;lt;uses&amp;gt;&amp;gt;&lt;/i&gt;" style="text;html=1;align=center;verticalAlign=middle;resizable=0;points=[];autosize=1;strokeColor=none;" vertex="1" parent="ClF1qyPl0i5m5IHIRU5K-1">
          <mxGeometry x="583" y="392" width="63" height="18" as="geometry" />
        </mxCell>
        <mxCell id="Kk2b6b-OAnLXcjFMLqS6-6" value="DaysTester" style="swimlane;fontStyle=1;align=center;verticalAlign=top;childLayout=stackLayout;horizontal=1;startSize=26;horizontalStack=0;resizeParent=1;resizeParentMax=0;resizeLast=0;collapsible=1;marginBottom=0;" vertex="1" parent="ClF1qyPl0i5m5IHIRU5K-1">
          <mxGeometry x="704" y="234" width="160" height="60" as="geometry" />
        </mxCell>
        <mxCell id="Kk2b6b-OAnLXcjFMLqS6-8" value="" style="line;strokeWidth=1;fillColor=none;align=left;verticalAlign=middle;spacingTop=-1;spacingLeft=3;spacingRight=3;rotatable=0;labelPosition=right;points=[];portConstraint=eastwest;" vertex="1" parent="Kk2b6b-OAnLXcjFMLqS6-6">
          <mxGeometry y="26" width="160" height="8" as="geometry" />
        </mxCell>
        <mxCell id="Kk2b6b-OAnLXcjFMLqS6-9" value="+ main(args: String[]): void" style="text;strokeColor=none;fillColor=none;align=left;verticalAlign=top;spacingLeft=4;spacingRight=4;overflow=hidden;rotatable=0;points=[[0,0.5],[1,0.5]];portConstraint=eastwest;" vertex="1" parent="Kk2b6b-OAnLXcjFMLqS6-6">
          <mxGeometry y="34" width="160" height="26" as="geometry" />
        </mxCell>
        <mxCell id="Kk2b6b-OAnLXcjFMLqS6-11" style="edgeStyle=none;rounded=1;sketch=0;orthogonalLoop=1;jettySize=auto;html=1;dashed=1;endArrow=block;endFill=0;startArrow=none;" edge="1" parent="ClF1qyPl0i5m5IHIRU5K-1" source="Kk2b6b-OAnLXcjFMLqS6-12" target="Kk2b6b-OAnLXcjFMLqS6-0">
          <mxGeometry relative="1" as="geometry" />
        </mxCell>
        <mxCell id="Kk2b6b-OAnLXcjFMLqS6-12" value="&lt;i&gt;&amp;lt;&amp;lt;uses&amp;gt;&amp;gt;&lt;/i&gt;" style="text;html=1;align=center;verticalAlign=middle;resizable=0;points=[];autosize=1;strokeColor=none;" vertex="1" parent="ClF1qyPl0i5m5IHIRU5K-1">
          <mxGeometry x="687" y="337" width="63" height="18" as="geometry" />
        </mxCell>
        <mxCell id="Kk2b6b-OAnLXcjFMLqS6-13" value="" style="edgeStyle=none;rounded=1;sketch=0;orthogonalLoop=1;jettySize=auto;html=1;dashed=1;endArrow=none;endFill=0;" edge="1" parent="ClF1qyPl0i5m5IHIRU5K-1" source="Kk2b6b-OAnLXcjFMLqS6-9" target="Kk2b6b-OAnLXcjFMLqS6-12">
          <mxGeometry relative="1" as="geometry">
            <mxPoint x="771.1452513966478" y="294" as="sourcePoint" />
            <mxPoint x="636.6648044692736" y="430" as="targetPoint" />
          </mxGeometry>
        </mxCell>
      </root>
    </mxGraphModel>
  </diagram>
  <diagram id="WJcTPY07vwg74i7s5hw9" name="Page-4">
    <mxGraphModel dx="1422" dy="800" grid="1" gridSize="10" guides="1" tooltips="1" connect="1" arrows="1" fold="1" page="1" pageScale="1" pageWidth="1100" pageHeight="850" math="0" shadow="0">
      <root>
        <mxCell id="J-76JHlcsHCf4UmAK3vN-0" />
        <mxCell id="J-76JHlcsHCf4UmAK3vN-1" parent="J-76JHlcsHCf4UmAK3vN-0" />
      </root>
    </mxGraphModel>
  </diagram>
</mxfile>
